# xmcd CD database file
#
# Track frame offsets:
#	150
#	5362
#	14268
#	23045
#	48533
#	77366
#	96923
#	105981
#	129207
#	134586
#	168683
#	172680
#	190988
#	213818
#	216283
#	236015
#	264771
#	276081
#	284690
#
# Disc length: 4005 seconds
#
# Revision: 2
# Processed by: cddbd v1.5.2PL0 Copyright (c) Steve Scherf et al.
# Submitted via: CDex 1.70beta2
#
DISCID=fc0fa313
DTITLE=Cecelia Ahern - Ich hab dich im Gefühl [CD4-5)
DYEAR=2008
DGENRE=Hörbuch
TTITLE0=Kapitel 25a
TTITLE1=Kapitel 25b
TTITLE2=Kapitel 25c
TTITLE3=Kapitel 25d
TTITLE4=Kapitel 26
TTITLE5=Kapitel 27a
TTITLE6=Kapitel 27b
TTITLE7=Kapitel 28a
TTITLE8=Kapitel 28b
TTITLE9=Kapitel 29
TTITLE10=Kapitel 30a
TTITLE11=Kapitel 30b
TTITLE12=Kapitel 31a
TTITLE13=Kapitel 31b
TTITLE14=Kapitel 32
TTITLE15=Kapitel 33a
TTITLE16=Kapitel 33b
TTITLE17=Kapitel 33c
TTITLE18=Kapitel 33d
EXTD=YEAR: 2008
EXTT0=
EXTT1=
EXTT2=
EXTT3=
EXTT4=
EXTT5=
EXTT6=
EXTT7=
EXTT8=
EXTT9=
EXTT10=
EXTT11=
EXTT12=
EXTT13=
EXTT14=
EXTT15=
EXTT16=
EXTT17=
EXTT18=
PLAYORDER=
